<svg width="136" height="22" viewBox="0 0 136 22" fill="none" xmlns="http://www.w3.org/2000/svg">
<path d="M24 3.47395C24 4.28424 23.5691 5.61385 22.6056 7.35067C21.6808 9.0178 20.4044 10.8164 19.043 12.4863C17.683 14.1543 16.2794 15.6434 15.1278 16.6972C14.5621 17.2148 14.0907 17.5965 13.7387 17.8392C13.7252 17.8309 13.7115 17.8224 13.6973 17.8135C13.2912 17.56 12.7449 17.1609 12.0913 16.6255C10.7912 15.5606 9.19479 14.0625 7.64532 12.3906C6.09239 10.715 4.63265 8.91433 3.57487 7.24869C2.46291 5.49774 2 4.20894 2 3.47395C2 3.19774 2.06752 3.07128 2.12525 2.99283C2.20021 2.89095 2.36493 2.73489 2.72069 2.57164C3.48081 2.22283 4.68817 2.03084 6.21427 2.00348C7.69292 1.97697 9.25811 2.10552 10.6132 2.24913C11.0596 2.29644 11.4635 2.3431 11.8378 2.38635C12.0382 2.4095 12.2301 2.43168 12.4156 2.45245C12.8882 2.50539 13.401 2.55985 13.7715 2.55985C14.1511 2.55985 14.6437 2.50355 15.0811 2.45011C15.2896 2.42462 15.4951 2.3984 15.708 2.37122C16.0165 2.33185 16.3408 2.29046 16.713 2.24639C17.9239 2.10304 19.2831 1.97752 20.5523 2.00339C21.8692 2.03022 22.8428 2.21889 23.4244 2.52445C23.6856 2.66165 23.8067 2.79096 23.8685 2.88724C23.9241 2.97397 24 3.13832 24 3.47395ZM13.3571 18.0677C13.3573 18.0673 13.3642 18.0641 13.3775 18.0593C13.3635 18.0657 13.3569 18.0681 13.3571 18.0677ZM14.1205 18.0465C14.1354 18.0512 14.1432 18.0544 14.1435 18.0549C14.1437 18.0553 14.1362 18.053 14.1205 18.0465Z" fill="#FFC85F" stroke="#FDAF01" stroke-width="4"/>
<path d="M101.234 18.2L101.514 2H105.014L107.014 12.22L109.154 2H112.534L112.674 10.1L112.814 18.2H110.414L110.154 7.22L108.094 18.2H106.034L103.874 7.14L103.654 18.2H101.234Z" fill="#FDAF01"/>
<path d="M115.201 18.2V2H122.261V4.28H118.501V8.58H121.401V10.88H118.501V15.96H122.301V18.2H115.201Z" fill="#FDAF01"/>
<path d="M123.09 21.58V15.84H123.59C123.883 15.7333 124.157 15.56 124.41 15.32C124.663 15.0667 124.89 14.74 125.09 14.34C125.303 13.9267 125.497 13.4133 125.67 12.8C125.843 12.1867 125.99 11.44 126.11 10.56C126.23 9.68 126.33 8.65333 126.41 7.48L126.81 2H134.19V15.84H135.95V21.58H133.73L133.55 18.2H125.59L125.39 21.58H123.09ZM126.71 15.84H131.09V4.36H129.35L129.17 7.88C129.103 9.08 129.01 10.1 128.89 10.94C128.77 11.78 128.623 12.48 128.45 13.04C128.29 13.5867 128.117 14.0333 127.93 14.38C127.743 14.7267 127.543 15.0067 127.33 15.22C127.117 15.4333 126.91 15.64 126.71 15.84Z" fill="#FDAF01"/>
<path d="M32 18.2V2H39.82V4.5H35.3V8.82H36C37.0667 8.82 37.96 8.98 38.68 9.3C39.4 9.62 39.9467 10.1267 40.32 10.82C40.6933 11.5 40.88 12.3933 40.88 13.5C40.88 14.46 40.7533 15.2467 40.5 15.86C40.26 16.46 39.9133 16.9333 39.46 17.28C39.0067 17.6267 38.4667 17.8667 37.84 18C37.2133 18.1333 36.5267 18.2 35.78 18.2H32ZM35.3 16.02H35.8C36.2933 16.02 36.6933 15.9333 37 15.76C37.3067 15.5867 37.52 15.3133 37.64 14.94C37.7733 14.5533 37.8333 14.0533 37.82 13.44C37.8067 12.7333 37.66 12.1733 37.38 11.76C37.1 11.3333 36.56 11.12 35.76 11.12H35.3V16.02Z" fill="#0B0B0D"/>
<path d="M41.9803 18.2L45.1203 2H48.7803L51.9003 18.2H48.8403L48.2603 14.64H45.7003L45.0803 18.2H41.9803ZM46.0003 12.62H47.9403L46.9603 6.08L46.0003 12.62Z" fill="#0B0B0D"/>
<path d="M54.7691 18.2V4.46H52.2691V2H60.5491V4.46H58.0891V18.2H54.7691Z" fill="#0B0B0D"/>
<path d="M62.0586 18.2V2H65.3586V8.82H66.1186C67.1719 8.82 68.0586 8.98 68.7786 9.3C69.4986 9.62 70.0453 10.1267 70.4186 10.82C70.7919 11.5 70.9786 12.3933 70.9786 13.5C70.9786 14.46 70.8519 15.2467 70.5986 15.86C70.3586 16.46 70.0053 16.9333 69.5386 17.28C69.0853 17.6267 68.5453 17.8667 67.9186 18C67.3053 18.1333 66.6253 18.2 65.8786 18.2H62.0586ZM65.3586 16.02H65.8986C66.3919 16.02 66.7853 15.9333 67.0786 15.76C67.3853 15.5867 67.6053 15.3133 67.7386 14.94C67.8719 14.5533 67.9319 14.0533 67.9186 13.44C67.9053 12.7333 67.7586 12.1733 67.4786 11.76C67.2119 11.3333 66.6719 11.12 65.8586 11.12H65.3586V16.02Z" fill="#0B0B0D"/>
<path d="M72.918 18.2V2H76.218V8.58H76.678L79.178 2H82.458L79.438 9.62L82.618 18.2H79.238L76.678 10.96H76.218V18.2H72.918Z" fill="#0B0B0D"/>
<path d="M83.9503 18.2V2H87.2303V18.2H83.9503Z" fill="#0B0B0D"/>
<path d="M89.46 18.2V2H93.56C94.2667 2 94.92 2.06 95.52 2.18C96.12 2.3 96.6467 2.51333 97.1 2.82C97.5667 3.12667 97.92 3.55333 98.16 4.1C98.4133 4.63333 98.54 5.33333 98.54 6.2C98.54 6.85333 98.4467 7.41333 98.26 7.88C98.0733 8.33333 97.8067 8.69333 97.46 8.96C97.1133 9.22667 96.6867 9.40667 96.18 9.5C96.8067 9.59333 97.3333 9.80667 97.76 10.14C98.1867 10.4733 98.5067 10.9133 98.72 11.46C98.9333 12.0067 99.04 12.6667 99.04 13.44C99.04 14.2533 98.9333 14.96 98.72 15.56C98.52 16.16 98.22 16.6533 97.82 17.04C97.42 17.4267 96.9267 17.72 96.34 17.92C95.7533 18.1067 95.0733 18.2 94.3 18.2H89.46ZM92.76 15.88H93.68C94.5067 15.88 95.0733 15.6733 95.38 15.26C95.7 14.8467 95.86 14.2267 95.86 13.4C95.86 12.76 95.7867 12.2533 95.64 11.88C95.4933 11.4933 95.2533 11.2133 94.92 11.04C94.6 10.8533 94.1667 10.76 93.62 10.76H92.76V15.88ZM92.76 8.54H93.58C94.1533 8.54 94.5867 8.46 94.88 8.3C95.1733 8.12667 95.3733 7.87333 95.48 7.54C95.6 7.19333 95.66 6.77333 95.66 6.28C95.66 5.78667 95.5733 5.39333 95.4 5.1C95.24 4.79333 94.9867 4.57333 94.64 4.44C94.3067 4.30667 93.88 4.24 93.36 4.24H92.76V8.54Z" fill="#0B0B0D"/>
</svg>
